<svg width="27" height="27" viewBox="0 0 27 27" fill="none" xmlns="http://www.w3.org/2000/svg">
<path d="M20.6918 25.2341C23.6562 22.8336 15.9016 15.8536 14.7269 14.8244C14.6781 14.7817 14.6088 14.8238 14.6235 14.8869C14.9964 16.4901 17.7165 27.6433 20.6918 25.2341Z" stroke="#4AA254" stroke-width="1.5"/>
<path d="M21.5078 4.99397C18.1889 3.18615 14.7278 12.8483 14.1893 14.4239C14.165 14.495 14.2401 14.5519 14.3013 14.5081C15.7252 13.4898 24.8407 6.80947 21.5078 4.99397Z" stroke="#F8B605" stroke-width="1.5"/>
<path d="M1.89302 16.1071C3.05334 19.9747 13.1021 15.0872 14.3914 14.4418C14.4357 14.4196 14.4252 14.3558 14.3763 14.3478C12.8761 14.1023 0.729208 12.2279 1.89302 16.1071Z" stroke="#4E8CFF" stroke-width="1.5"/>
</svg>
